<svg
 id="shopping-cart"
 xmlns="http://www.w3.org/2000/svg"
 viewBox="0 0 24 24"
 color="#131214"
 fill="none"
 style="width: 24px; height: 24px;">
    <path
        d="M4 4.15002H5.73042C6.46062 4.15002 7.09029 4.66317 7.23766 5.37834L8.88547 13.3748C9.08197 14.3283 9.92152 15.0125 10.8951 15.0125H17.0778C18.0255 15.0125 18.85 14.3634 19.0724 13.4422L19.9563 9.78076C20.1901 8.81254 19.4564 7.88071 18.4604 7.88071H7.73068M10.7152 19.0728C10.7152 19.4848 10.3812 19.8189 9.9691 19.8189C9.55702 19.8189 9.22296 19.4848 9.22296 19.0728C9.22296 18.6607 9.55702 18.3266 9.9691 18.3266C10.3812 18.3266 10.7152 18.6607 10.7152 19.0728ZM18.9227 19.0728C18.9227 19.4848 18.5887 19.8189 18.1766 19.8189C17.7645 19.8189 17.4305 19.4848 17.4305 19.0728C17.4305 18.6607 17.7645 18.3266 18.1766 18.3266C18.5887 18.3266 18.9227 18.6607 18.9227 19.0728Z"
        stroke-linecap="round"
        stroke-linejoin="round"
        stroke-width="1.5px"
        stroke="#131214"
        fill="none">
    </path>
</svg>