<svg width="32" height="32" viewBox="0 0 32 32" fill="none" xmlns="http://www.w3.org/2000/svg">
<path d="M21.333 21.3333V4H1.33301V21.3333H21.333ZM21.333 21.3333H30.6663V14.6667L26.6663 10.6667H21.333V21.3333ZM10.6663 24.6667C10.6663 26.5076 9.17396 28 7.33301 28C5.49206 28 3.99967 26.5076 3.99967 24.6667C3.99967 22.8257 5.49206 21.3333 7.33301 21.3333C9.17396 21.3333 10.6663 22.8257 10.6663 24.6667ZM27.9997 24.6667C27.9997 26.5076 26.5073 28 24.6663 28C22.8254 28 21.333 26.5076 21.333 24.6667C21.333 22.8257 22.8254 21.3333 24.6663 21.3333C26.5073 21.3333 27.9997 22.8257 27.9997 24.6667Z" stroke="#090A0A" stroke-width="1.5" stroke-linecap="round" stroke-linejoin="round"/>
</svg>
